# xmcd
# 
# Track frame offsets:
#     182
#     20570
#     31657
#     44607
#     56570
#     75432
#     87407
#     99345
#     109195
#     123482
#     134220
#     142682
#     156482
#     174245
#     191232
#     205282
#     220032
#     238245
#     249507
#     261445
#     273645
#     286645
#     298370
#     308582
#     320320
#     333045
# 
# Disc length: 4592
# 
# Revision: 7
# Processed by: cddbd v1.5.2PL0 Copyright (c) Steve Scherf et al.
# Submitted via: fre:ac v1.1beta1pre4
# 
DISCID=8211ee1a
DTITLE=Joe Dassin - Joe Dassin - "L'Eté Indien"
DYEAR=0
DGENRE=Oldies
TTITLE0=L'été indien
TTITLE1=Excuse Me, Lady
TTITLE2=Guantanamera
TTITLE3=Les Dalton
TTITLE4=Marie-Jeanne
TTITLE5=Les Champs Elysées
TTITLE6=Siffler sur la colline
TTITLE7=La fleur aux dents
TTITLE8=L'équipe à Jojo
TTITLE9=L'Amérique
TTITLE10=Il faut naître à Monaco
TTITLE11=Ca va pas changer le monde
TTITLE12=Il était une fois nous deux
TTITLE13=Dans les yeux d'Emilie
TTITLE14=Côté banjo, côté violon
TTITLE15=Si tu t'appelles Mélancolie
TTITLE16=Salut les amoureux
TTITLE17=Le chemin de papa
TTITLE18=Ma bonne étoile
TTITLE19=Le portugais
TTITLE20=Les temps des oeufs au plat
TTITLE21=Ca m'avance à quoi ?
TTITLE22=Bip Bip
TTITLE23=Plus je te vois, plus je te veux
TTITLE24=On s'en va
TTITLE25=C'est bon l'amour
EXTD=
EXTT0=Clint Black
EXTT1=Radney Foster
EXTT2=Michelle Wrigth
EXTT3=Lee Roy Parnell
EXTT4=Tammy Graham
EXTT5=Diamond Rio
EXTT6=Written and composed by: Ferdinand Del Negro\n\nOther Artists: Arthur Grossman\n\nWolf contrabassoon #02 95, Wolf M8 WD1 bocal
EXTT7=Written and composed by: Graham Powning\n\nOther Artists: Arthur Grossman, Michael Jolivet\n\nfor 2 contrabassoons (with Michael Jolivet]\n\nWolf contrabassoon #02 95, Wolf M8 WD1 bocal and\nWolf contrabassoon #05 83, Wolf M10 W1 bocal
EXTT8=ADD\n\nRec: 1971, Studio 103, Radio France
EXTT9=ADD\n\nRec: 1971, Studio 103, Radio France
EXTT10=ADD\n\nRec: 1971, Studio 103, Radio France
EXTT11=ADD\n\nRec: 1971, Studio 103, Radio France
EXTT12=DDD\n\nRec: 1986 - Salle Pleyel, Paris
EXTT13=DDD\n\nRec: 1986 - Salle Pleyel, Paris
EXTT14=DDD\n\nRec: 1986 - Salle Pleyel, Paris
EXTT15=ADD\n\nPrélude et Introduction\n\tAndante- Dans l'antre de la Sybille: Entrée d'Énée\n\tScherzo - Danse des Ombres\n\nLes Épreuve d'Aneas\n\tModerato - La solitude\n\tInterlude - Apparation de la Sybille\n\tAllegro - Les joines funestes\n\tAndante 
EXTT15= Les Amours tragiques: Danse de Didon\n\tAllegro - Le Passé - Danse guerrière\n\tAllegro - Danse d'Aneas\n\nHymne final\n\tLe peuple romain\n\nRec: 1969, Studio 103, Radio France
EXTT16=June 23 1680
EXTT17=June 30 1680
EXTT18=August 19 1680
EXTT19=Herbert von Karajan
EXTT20=Herbert von Karajan
EXTT21=Vers o de:\nThe sounds of silence \n
EXTT22=Herbert von Karajan
EXTT23=Herbert von Karajan
EXTT24=Herbert von Karajan
EXTT25=Herbert von Karajan
PLAYORDER=
